# xmcd CD database file
#
# Track frame offsets:
#	150
#	16180
#	32457
#	48182
#	65231
#	81897
#	94101
#	113659
#	124361
#	143130
#	164572
#	180572
#	196276
#
# Disc length: 2847 seconds
#
# Revision: 2
# Processed by: cddbd v1.5.2PL0 Copyright (c) Steve Scherf et al.
# Submitted via: CDex 1.51
#
DISCID=ac0b1d0d
DTITLE=倉橋ヨエコ - 東京ピアノ
DYEAR=2004
DGENRE=Japanese Pop
TTITLE0=東京
TTITLE1=白い旗
TTITLE2=ロボット
TTITLE3=赤い靴
TTITLE4=朝焼け
TTITLE5=二番目の道
TTITLE6=不安のお山
TTITLE7=森へ行く
TTITLE8=はないちもんめ
TTITLE9=マネキン
TTITLE10=雨降り
TTITLE11=ヒバリ
TTITLE12=終点
EXTD=YEAR: 2004
EXTT0=
EXTT1=
EXTT2=
EXTT3=
EXTT4=
EXTT5=
EXTT6=
EXTT7=
EXTT8=
EXTT9=
EXTT10=
EXTT11=
EXTT12=
PLAYORDER=
